<svg width="130" height="30" viewBox="0 0 130 30" fill="none" xmlns="http://www.w3.org/2000/svg">
<path d="M3.65656 18.1172H9.39094V20H0.726875V18.625L6.35188 10.5234H0.734688V8.625H9.26594V9.96875L3.65656 18.1172ZM16.5853 20C16.4811 19.7969 16.4056 19.5443 16.3588 19.2422C15.8119 19.8516 15.1009 20.1562 14.2259 20.1562C13.3978 20.1562 12.7103 19.9167 12.1634 19.4375C11.6218 18.9583 11.3509 18.3542 11.3509 17.625C11.3509 16.7292 11.6817 16.0417 12.3431 15.5625C13.0098 15.0833 13.9707 14.8411 15.2259 14.8359H16.265V14.3516C16.265 13.9609 16.1634 13.6484 15.9603 13.4141C15.7624 13.1797 15.4473 13.0625 15.015 13.0625C14.6348 13.0625 14.3353 13.1536 14.1166 13.3359C13.903 13.5182 13.7963 13.7682 13.7963 14.0859H11.5384C11.5384 13.5964 11.6895 13.1432 11.9916 12.7266C12.2936 12.3099 12.7207 11.9844 13.2728 11.75C13.8249 11.5104 14.4447 11.3906 15.1322 11.3906C16.1739 11.3906 16.9994 11.6536 17.6088 12.1797C18.2233 12.7005 18.5306 13.4349 18.5306 14.3828V18.0469C18.5358 18.849 18.6478 19.4557 18.8666 19.8672V20H16.5853ZM14.7181 18.4297C15.0515 18.4297 15.3588 18.3568 15.64 18.2109C15.9213 18.0599 16.1296 17.8594 16.265 17.6094V16.1562H15.4213C14.291 16.1562 13.6895 16.5469 13.6166 17.3281L13.6088 17.4609C13.6088 17.7422 13.7077 17.974 13.9056 18.1562C14.1035 18.3385 14.3744 18.4297 14.7181 18.4297ZM28.8344 15.8516C28.8344 17.1536 28.5375 18.1979 27.9438 18.9844C27.3552 19.7656 26.5583 20.1562 25.5531 20.1562C24.699 20.1562 24.0089 19.8594 23.4828 19.2656V23.25H21.225V11.5469H23.3188L23.3969 12.375C23.9438 11.7188 24.6573 11.3906 25.5375 11.3906C26.5792 11.3906 27.3891 11.776 27.9672 12.5469C28.5453 13.3177 28.8344 14.3802 28.8344 15.7344V15.8516ZM26.5766 15.6875C26.5766 14.901 26.4359 14.2943 26.1547 13.8672C25.8786 13.4401 25.475 13.2266 24.9438 13.2266C24.2354 13.2266 23.7484 13.4974 23.4828 14.0391V17.5C23.7589 18.0573 24.251 18.3359 24.9594 18.3359C26.0375 18.3359 26.5766 17.4531 26.5766 15.6875ZM33.5834 20H31.3178V11.5469H33.5834V20ZM31.185 9.35938C31.185 9.02083 31.297 8.74219 31.5209 8.52344C31.7501 8.30469 32.06 8.19531 32.4506 8.19531C32.836 8.19531 33.1433 8.30469 33.3725 8.52344C33.6017 8.74219 33.7162 9.02083 33.7162 9.35938C33.7162 9.70312 33.5991 9.98438 33.3647 10.2031C33.1355 10.4219 32.8308 10.5312 32.4506 10.5312C32.0704 10.5312 31.7631 10.4219 31.5287 10.2031C31.2996 9.98438 31.185 9.70312 31.185 9.35938ZM40.9888 17.6641C40.9888 17.388 40.8507 17.1719 40.5747 17.0156C40.3039 16.8542 39.8664 16.7109 39.2622 16.5859C37.2518 16.1641 36.2466 15.3099 36.2466 14.0234C36.2466 13.2734 36.5565 12.6484 37.1763 12.1484C37.8013 11.6432 38.6164 11.3906 39.6216 11.3906C40.6945 11.3906 41.5513 11.6432 42.1919 12.1484C42.8377 12.6536 43.1606 13.3099 43.1606 14.1172H40.9028C40.9028 13.7943 40.7986 13.5286 40.5903 13.3203C40.382 13.1068 40.0565 13 39.6138 13C39.2335 13 38.9393 13.0859 38.7309 13.2578C38.5226 13.4297 38.4184 13.6484 38.4184 13.9141C38.4184 14.1641 38.5356 14.3672 38.77 14.5234C39.0096 14.6745 39.4106 14.8073 39.9731 14.9219C40.5356 15.0312 41.0096 15.1562 41.395 15.2969C42.5877 15.7344 43.1841 16.4922 43.1841 17.5703C43.1841 18.3411 42.8533 18.9661 42.1919 19.4453C41.5304 19.9193 40.6763 20.1562 39.6294 20.1562C38.921 20.1562 38.2908 20.0312 37.7388 19.7812C37.1919 19.526 36.7622 19.1797 36.4497 18.7422C36.1372 18.2995 35.9809 17.8229 35.9809 17.3125H38.1216C38.1424 17.7135 38.2908 18.0208 38.5669 18.2344C38.8429 18.4479 39.2127 18.5547 39.6763 18.5547C40.1085 18.5547 40.4341 18.474 40.6528 18.3125C40.8768 18.1458 40.9888 17.9297 40.9888 17.6641ZM48.1987 18.1797H52.3316V20H45.3159V18.625L49.2925 13.375H45.4331V11.5469H52.2066V12.8828L48.1987 18.1797ZM64.2281 17.6641C64.2281 17.388 64.0901 17.1719 63.8141 17.0156C63.5432 16.8542 63.1057 16.7109 62.5016 16.5859C60.4911 16.1641 59.4859 15.3099 59.4859 14.0234C59.4859 13.2734 59.7958 12.6484 60.4156 12.1484C61.0406 11.6432 61.8557 11.3906 62.8609 11.3906C63.9339 11.3906 64.7906 11.6432 65.4313 12.1484C66.0771 12.6536 66.4 13.3099 66.4 14.1172H64.1422C64.1422 13.7943 64.038 13.5286 63.8297 13.3203C63.6214 13.1068 63.2958 13 62.8531 13C62.4729 13 62.1786 13.0859 61.9703 13.2578C61.762 13.4297 61.6578 13.6484 61.6578 13.9141C61.6578 14.1641 61.775 14.3672 62.0094 14.5234C62.249 14.6745 62.65 14.8073 63.2125 14.9219C63.775 15.0312 64.249 15.1562 64.6344 15.2969C65.8271 15.7344 66.4234 16.4922 66.4234 17.5703C66.4234 18.3411 66.0927 18.9661 65.4313 19.4453C64.7698 19.9193 63.9156 20.1562 62.8688 20.1562C62.1604 20.1562 61.5302 20.0312 60.9781 19.7812C60.4313 19.526 60.0016 19.1797 59.6891 18.7422C59.3766 18.2995 59.2203 17.8229 59.2203 17.3125H61.3609C61.3818 17.7135 61.5302 18.0208 61.8063 18.2344C62.0823 18.4479 62.4521 18.5547 62.9156 18.5547C63.3479 18.5547 63.6734 18.474 63.8922 18.3125C64.1161 18.1458 64.2281 17.9297 64.2281 17.6641ZM71.2272 20H68.9616V11.5469H71.2272V20ZM68.8288 9.35938C68.8288 9.02083 68.9407 8.74219 69.1647 8.52344C69.3939 8.30469 69.7038 8.19531 70.0944 8.19531C70.4798 8.19531 70.7871 8.30469 71.0163 8.52344C71.2454 8.74219 71.36 9.02083 71.36 9.35938C71.36 9.70312 71.2428 9.98438 71.0084 10.2031C70.7793 10.4219 70.4746 10.5312 70.0944 10.5312C69.7142 10.5312 69.4069 10.4219 69.1725 10.2031C68.9433 9.98438 68.8288 9.70312 68.8288 9.35938ZM81.2419 18.6328C80.919 19.1068 80.458 19.4818 79.8591 19.7578H79.8669C79.4815 19.9766 79.1846 20.1901 78.9762 20.3984C78.7679 20.612 78.6637 20.8568 78.6637 21.1328C78.6637 21.4714 78.8356 21.6406 79.1794 21.6406C79.3512 21.6406 79.5596 21.5885 79.8044 21.4844L80.0309 22.7109C79.6507 22.9401 79.221 23.0547 78.7419 23.0547C78.221 23.0547 77.794 22.9089 77.4606 22.6172C77.1325 22.3307 76.9684 21.9323 76.9684 21.4219C76.9684 20.9167 77.1325 20.487 77.4606 20.1328C76.346 20.0339 75.4476 19.612 74.7653 18.8672C74.0882 18.1172 73.7497 17.1615 73.7497 16V15.7578C73.7497 14.9089 73.9137 14.151 74.2419 13.4844C74.57 12.8125 75.0335 12.2969 75.6325 11.9375C76.2367 11.5729 76.9242 11.3906 77.695 11.3906C78.8512 11.3906 79.7601 11.7552 80.4216 12.4844C81.0882 13.2135 81.4216 14.2474 81.4216 15.5859V16.5078H76.0387C76.1117 17.0599 76.3304 17.5026 76.695 17.8359C77.0648 18.1693 77.5309 18.3359 78.0934 18.3359C78.9632 18.3359 79.6429 18.0208 80.1325 17.3906L81.2419 18.6328ZM77.6872 13.2188C77.2393 13.2188 76.8747 13.3698 76.5934 13.6719C76.3174 13.974 76.1403 14.4062 76.0622 14.9688H79.2028V14.7891C79.1924 14.2891 79.057 13.9036 78.7966 13.6328C78.5361 13.3568 78.1664 13.2188 77.6872 13.2188Z" fill="white"/>
<path d="M130 3L106 16.5L113.67 19.3407L125.5 8.25002L116.502 20.3896L116.509 20.3923L116.5 20.3896V27.0001L120.801 21.982L126.25 24.0001L130 3Z" fill="white"/>
</svg>
